<svg width="56" height="56" viewBox="0 0 56 56" fill="none" xmlns="http://www.w3.org/2000/svg">
<circle cx="28" cy="28" r="28" fill="#DDEAFF"/>
<g clip-path="url(#clip0_154_525)">
<path d="M37.9132 39.3632V13.2632H17.6132V39.3632H14.7131V42.2632H40.8131V39.3632H37.9132ZM26.3131 16.1632H29.2132V19.0632H26.3131V16.1632ZM26.3131 21.9632H29.2132V24.8632H26.3131V21.9632ZM26.3131 27.7631H29.2132V30.6632H26.3131V27.7631ZM23.4131 30.6632H20.5131V27.7631H23.4131V30.6632ZM23.4131 24.8632H20.5131V21.9632H23.4131V24.8632ZM23.4131 19.0632H20.5131V16.1632H23.4131V19.0632ZM30.6631 39.3632H24.8632V36.4631C24.8632 34.8681 26.1682 33.5631 27.7632 33.5631C29.3582 33.5631 30.6631 34.8682 30.6631 36.4631V39.3632ZM35.0131 30.6632H32.1131V27.7631H35.0131V30.6632ZM35.0131 24.8632H32.1131V21.9632H35.0131V24.8632ZM35.0131 19.0632H32.1131V16.1632H35.0131V19.0632Z" fill="#3267D9"/>
</g>
<defs>
<clipPath id="clip0_154_525">
<rect width="29" height="29" fill="white" transform="translate(13.2632 13.2632)"/>
</clipPath>
</defs>
</svg>
