<svg width="56" height="56" viewBox="0 0 56 56" fill="none" xmlns="http://www.w3.org/2000/svg">
<circle cx="28" cy="28" r="28" fill="#DDEAFF"/>
<g clip-path="url(#clip0_154_564)">
<path d="M41.5772 24.3188C41.5817 24.3999 41.5758 24.4824 41.5554 24.5644L39.7374 31.8364C39.6457 32.2028 39.3174 32.4604 38.9399 32.4624L28.0319 32.5175C28.0304 32.5175 28.0291 32.5175 28.0277 32.5175H17.1196C16.7401 32.5175 16.4094 32.259 16.3178 31.8907L14.4998 24.5912C14.4788 24.507 14.4728 24.4222 14.4781 24.339C13.7748 24.1174 13.2632 23.4593 13.2632 22.6837C13.2632 21.7268 14.0416 20.9484 14.9986 20.9484C15.9555 20.9484 16.7339 21.7268 16.7339 22.6837C16.7339 23.2226 16.487 23.7048 16.1004 24.0233L18.3765 26.3166C18.9518 26.8963 19.75 27.2286 20.5667 27.2286C21.5323 27.2286 22.453 26.77 23.0328 26.0017L26.7735 21.0453C26.4592 20.7313 26.2647 20.2974 26.2647 19.819C26.2647 18.8621 27.0431 18.0836 28 18.0836C28.957 18.0836 29.7354 18.8621 29.7354 19.819C29.7354 20.2831 29.5512 20.7043 29.2533 21.016C29.2543 21.0173 29.2556 21.0184 29.2565 21.0199L32.9701 25.9899C33.5497 26.7656 34.4737 27.2287 35.442 27.2287C36.2662 27.2287 37.0412 26.9078 37.624 26.3249L39.9144 24.0344C39.5197 23.716 39.2661 23.2292 39.2661 22.6837C39.2661 21.7268 40.0446 20.9484 41.0015 20.9484C41.9584 20.9484 42.7369 21.7268 42.7369 22.6837C42.7369 23.4386 42.2515 24.0806 41.5772 24.3188ZM39.56 35.1067C39.56 34.6504 39.19 34.2804 38.7336 34.2804H17.3583C16.9019 34.2804 16.532 34.6504 16.532 35.1067V37.09C16.532 37.5464 16.9019 37.9164 17.3583 37.9164H38.7336C39.19 37.9164 39.56 37.5464 39.56 37.09V35.1067Z" fill="#3267D9"/>
</g>
<defs>
<clipPath id="clip0_154_564">
<rect width="29.4737" height="29.4737" fill="white" transform="translate(13.2632 13.2632)"/>
</clipPath>
</defs>
</svg>
