<svg width="56" height="56" viewBox="0 0 56 56" fill="none" xmlns="http://www.w3.org/2000/svg">
<circle cx="28" cy="28" r="28" fill="#DDEAFF"/>
<path d="M17.71 21.9299C17.3036 21.6952 16.7841 21.8346 16.5496 22.2408C16.3148 22.6472 16.4542 23.1667 16.8604 23.4013C17.2667 23.636 17.7864 23.4966 18.0209 23.0904C18.2557 22.684 18.1163 22.1645 17.71 21.9299Z" fill="#3267D9"/>
<path d="M39.375 20.1168H38.5254V19.2672C38.5254 18.7977 38.1455 18.4176 37.6758 18.4176C37.2063 18.4176 36.8262 18.7977 36.8262 19.2672V20.1168H35.9766C35.5071 20.1168 35.127 20.4969 35.127 20.9664C35.127 21.4362 35.5071 21.816 35.9766 21.816H36.8262V22.6657C36.8262 23.1352 37.2063 23.5153 37.6758 23.5153C38.1455 23.5153 38.5254 23.1352 38.5254 22.6657V21.816H39.375C39.8445 21.816 40.2246 21.4362 40.2246 20.9664C40.2246 20.4969 39.8445 20.1168 39.375 20.1168Z" fill="#3267D9"/>
<path d="M16.436 17.5115C16.436 17.9812 16.8159 18.3611 17.2856 18.3611C17.7551 18.3611 18.1353 17.9812 18.1353 17.5115V16.6619H18.9849C19.4544 16.6619 19.8345 16.282 19.8345 15.8123C19.8345 15.3428 19.4544 14.9626 18.9849 14.9626H18.1353V14.113C18.1353 13.6435 17.7551 13.2634 17.2856 13.2634C16.8159 13.2634 16.436 13.6435 16.436 14.113V14.9626H15.5864C15.1169 14.9626 14.7368 15.3428 14.7368 15.8123C14.7368 16.282 15.1169 16.6619 15.5864 16.6619H16.436V17.5115Z" fill="#3267D9"/>
<path d="M21.8024 14.8515C22.6111 16.4693 23.0602 18.2553 23.1733 20.0602H31.7884C31.9012 18.2555 32.3504 16.4693 33.1591 14.8515L33.3383 14.4931C33.5018 14.1663 33.4378 13.7714 33.179 13.5125C32.921 13.2536 32.5261 13.1897 32.1984 13.3532L29.3475 14.7785L28.0813 13.5125C27.7494 13.1806 27.2118 13.1806 26.8799 13.5125L25.6139 14.7785L22.7631 13.353C22.4345 13.1897 22.0422 13.2527 21.7825 13.5125C21.5236 13.7711 21.4597 14.1661 21.6232 14.4931L21.8024 14.8515Z" fill="#3267D9"/>
<path d="M32.6826 21.8162H22.2789L18.9616 25.831C17.333 27.8033 16.436 30.3563 16.436 32.9177C16.436 38.5951 20.7713 42.2632 27.4807 42.2632C34.1905 42.2632 38.5257 38.5951 38.5257 32.9177C38.5257 30.3563 37.6287 27.8599 35.9992 25.8877L32.6826 21.8162ZM27.4717 30.6178C28.8773 30.6178 30.0205 31.761 30.0205 33.1666C30.0205 34.2694 29.3125 35.2015 28.3304 35.556V36.3162C28.3304 36.7857 27.9505 37.1658 27.4807 37.1658C27.0112 37.1658 26.6314 36.7857 26.6314 36.3162V35.5617C25.6397 35.2123 24.9228 34.276 24.9228 33.1666C24.9228 32.6969 25.303 32.317 25.7725 32.317C26.2422 32.317 26.6221 32.6969 26.6221 33.1666C26.6221 33.6355 27.0031 34.0163 27.4717 34.0163C27.9405 34.0163 28.3213 33.6355 28.3213 33.1666C28.3213 32.6978 27.9405 32.317 27.4717 32.317C26.0663 32.317 24.9228 31.1736 24.9228 29.7682C24.9228 28.6586 25.6397 27.7225 26.6314 27.3731V26.1209C26.6314 25.6514 27.0112 25.2712 27.4807 25.2712C27.9505 25.2712 28.3304 25.6514 28.3304 26.1209V27.3789C29.3125 27.7333 30.0205 28.6655 30.0205 29.7682C30.0205 30.2379 29.6406 30.6178 29.1709 30.6178C28.7014 30.6178 28.3213 30.2379 28.3213 29.7682C28.3213 29.2996 27.9405 28.9186 27.4717 28.9186C27.0031 28.9186 26.6221 29.2996 26.6221 29.7682C26.6221 30.237 27.0028 30.6178 27.4717 30.6178Z" fill="#3267D9"/>
</svg>
