<svg width="56" height="56" viewBox="0 0 56 56" fill="none" xmlns="http://www.w3.org/2000/svg">
<circle cx="28" cy="28" r="28" fill="#DDEAFF"/>
<path d="M26.3522 31.0645L24.1167 33.3C23.6455 33.7712 22.8963 33.7712 22.413 33.312C22.2801 33.1791 22.1472 33.0583 22.0142 32.9254C20.7697 31.6687 19.6459 30.3516 18.643 28.9741C17.6522 27.5966 16.8547 26.2191 16.2747 24.8537C15.7067 23.4762 15.4167 22.1591 15.4167 20.9025C15.4167 20.0808 15.5617 19.2954 15.8517 18.5704C16.1417 17.8333 16.6009 17.1566 17.2413 16.5525C18.0147 15.7912 18.8605 15.4166 19.7547 15.4166C20.093 15.4166 20.4313 15.4891 20.7334 15.6341C21.0476 15.7791 21.3255 15.9966 21.543 16.3108L24.3463 20.262C24.5638 20.5641 24.7209 20.842 24.8297 21.1079C24.9384 21.3616 24.9988 21.6154 24.9988 21.845C24.9988 22.135 24.9142 22.425 24.7451 22.7029C24.588 22.9808 24.3584 23.2708 24.0684 23.5608L23.1501 24.5154C23.0172 24.6483 22.9567 24.8054 22.9567 24.9987C22.9567 25.0954 22.9688 25.18 22.993 25.2766C23.0292 25.3733 23.0655 25.4458 23.0897 25.5183C23.3072 25.917 23.6817 26.4366 24.2134 27.065C24.7572 27.6933 25.3372 28.3337 25.9655 28.9741C26.0863 29.095 26.2192 29.2158 26.3401 29.3366C26.8234 29.8079 26.8355 30.5812 26.3522 31.0645Z" fill="#3267D9"/>
<path d="M39.5472 35.1487C39.5472 35.487 39.4868 35.8375 39.3659 36.1758C39.3297 36.2725 39.2934 36.3691 39.2451 36.4658C39.0397 36.9008 38.7738 37.3116 38.4234 37.6983C37.8313 38.3508 37.1788 38.8221 36.4418 39.1241C36.4297 39.1241 36.4176 39.1362 36.4055 39.1362C35.6926 39.4262 34.9193 39.5833 34.0855 39.5833C32.853 39.5833 31.5359 39.2933 30.1463 38.7012C28.7568 38.1091 27.3672 37.3116 25.9897 36.3087C25.5184 35.9583 25.0472 35.6079 24.6001 35.2333L28.5513 31.282C28.8897 31.5358 29.1918 31.7291 29.4455 31.862C29.5059 31.8862 29.5784 31.9225 29.663 31.9587C29.7597 31.995 29.8563 32.007 29.9651 32.007C30.1705 32.007 30.3276 31.9345 30.4605 31.8016L31.3788 30.8954C31.6809 30.5933 31.9709 30.3637 32.2488 30.2187C32.5268 30.0495 32.8047 29.965 33.1068 29.965C33.3363 29.965 33.578 30.0133 33.8438 30.122C34.1097 30.2308 34.3876 30.3879 34.6897 30.5933L38.6893 33.4329C39.0034 33.6504 39.2209 33.9041 39.3538 34.2062C39.4747 34.5083 39.5472 34.8104 39.5472 35.1487Z" fill="#3267D9"/>
</svg>
