<svg width="56" height="56" viewBox="0 0 56 56" fill="none" xmlns="http://www.w3.org/2000/svg">
<circle cx="28" cy="28" r="28" fill="#DDEAFF"/>
<g clip-path="url(#clip0_154_549)">
<path d="M37.4289 30.5905C36.9525 30.5905 36.5654 30.9775 36.5654 31.4539C36.5654 31.9304 36.9525 32.3174 37.4289 32.3174C37.9053 32.3174 38.2924 31.9304 38.2924 31.4539C38.2924 30.9775 37.9053 30.5905 37.4289 30.5905Z" fill="#3267D9"/>
<path d="M42.6102 18.5017H22.7065V21.0922C22.7065 21.5694 22.3203 21.9557 21.8431 21.9557C21.3658 21.9557 20.9796 21.5694 20.9796 21.0922V18.5017H14.8635C14.3862 18.5017 14 18.8879 14 19.3652V24.5461C14 25.0234 14.3862 25.4096 14.8635 25.4096C16.2919 25.4096 17.4539 26.5716 17.4539 28.0001C17.4539 29.4285 16.2919 30.5905 14.8635 30.5905C14.3862 30.5905 14 30.9767 14 31.454V36.6349C14 37.1122 14.3862 37.4984 14.8635 37.4984H20.9079V34.908C20.9079 34.4307 21.2941 34.0445 21.7714 34.0445C22.2487 34.0445 22.6349 34.4307 22.6349 34.908V37.4984H42.6102C43.0875 37.4984 43.4737 37.1122 43.4737 36.6349V19.3652C43.4737 18.8879 43.0875 18.5017 42.6102 18.5017ZM22.6349 31.454C22.6349 31.9313 22.2487 32.3175 21.7714 32.3175C21.2941 32.3175 20.9079 31.9313 20.9079 31.454V29.727C20.9079 29.2498 21.2941 28.8636 21.7714 28.8636C22.2487 28.8636 22.6349 29.2498 22.6349 29.727V31.454ZM22.6349 26.2731C22.6349 26.7504 22.2487 27.1366 21.7714 27.1366C21.2941 27.1366 20.9079 26.7504 20.9079 26.2731V24.5461C20.9079 24.0688 21.2941 23.6826 21.7714 23.6826C22.2487 23.6826 22.6349 24.0688 22.6349 24.5461V26.2731ZM27.9309 24.5461C27.9309 23.1177 29.0929 21.9557 30.5214 21.9557C31.9498 21.9557 33.1118 23.1177 33.1118 24.5461C33.1118 25.9746 31.9498 27.1366 30.5214 27.1366C29.0929 27.1366 27.9309 25.9746 27.9309 24.5461ZM30.0424 33.8994C29.6453 33.6346 29.5382 33.0992 29.803 32.702L36.7109 22.3401C36.9748 21.943 37.5103 21.8367 37.9083 22.1007C38.3054 22.3655 38.4126 22.9009 38.1478 23.2981L31.2399 33.6599C30.9794 34.0512 30.4459 34.1669 30.0424 33.8994ZM37.4293 34.0445C36.0008 34.0445 34.8388 32.8824 34.8388 31.454C34.8388 30.0256 36.0008 28.8636 37.4293 28.8636C38.8577 28.8636 40.0197 30.0256 40.0197 31.454C40.0197 32.8824 38.8577 34.0445 37.4293 34.0445Z" fill="#3267D9"/>
<path d="M30.5217 23.6826C30.0453 23.6826 29.6582 24.0697 29.6582 24.5461C29.6582 25.0225 30.0453 25.4096 30.5217 25.4096C30.9981 25.4096 31.3852 25.0225 31.3852 24.5461C31.3852 24.0697 30.9981 23.6826 30.5217 23.6826Z" fill="#3267D9"/>
</g>
<defs>
<clipPath id="clip0_154_549">
<rect width="29.4737" height="29.4737" fill="white" transform="translate(14 13.2632)"/>
</clipPath>
</defs>
</svg>
