<svg width="56" height="56" viewBox="0 0 56 56" fill="none" xmlns="http://www.w3.org/2000/svg">
<circle cx="28" cy="28" r="28" fill="#DDEAFF"/>
<path d="M25.3855 25.1196C25.3855 25.7721 25.5667 25.8688 25.9776 26.0138L26.5938 26.2313V24.1771H26.2313C25.7722 24.1771 25.3855 24.6 25.3855 25.1196Z" fill="#3267D9"/>
<path d="M28.4062 30.823H28.7688C29.24 30.823 29.6146 30.4 29.6146 29.8805C29.6146 29.228 29.4333 29.1313 29.0225 28.9863L28.4062 28.7688V30.823Z" fill="#3267D9"/>
<path d="M36.6592 19.6216L34.1822 22.0987C34.0009 22.28 33.7713 22.3645 33.5417 22.3645C33.3122 22.3645 33.0826 22.28 32.9013 22.0987C32.5509 21.7483 32.5509 21.1683 32.9013 20.8179L35.3784 18.3408C33.2517 16.5283 30.5088 15.4166 27.5001 15.4166C20.8301 15.4166 15.4167 20.83 15.4167 27.5C15.4167 34.17 20.8301 39.5833 27.5001 39.5833C34.1701 39.5833 39.5834 34.17 39.5834 27.5C39.5834 24.4912 38.4717 21.7483 36.6592 19.6216ZM29.6147 27.2825C30.388 27.5604 31.4272 28.1162 31.4272 29.8925C31.4272 31.4029 30.2309 32.6475 28.7688 32.6475H28.4063V32.9495C28.4063 33.445 27.9955 33.8558 27.5001 33.8558C27.0047 33.8558 26.5938 33.445 26.5938 32.9495V32.6475H26.4972C24.8901 32.6475 23.573 31.2941 23.573 29.6266C23.573 29.1191 23.9838 28.7083 24.4792 28.7083C24.9747 28.7083 25.3855 29.1191 25.3855 29.6145C25.3855 30.2791 25.8809 30.8229 26.4972 30.8229H26.5938V28.1404L25.3855 27.7175C24.6122 27.4395 23.573 26.8837 23.573 25.1075C23.573 23.597 24.7692 22.3525 26.2313 22.3525H26.5938V22.0625C26.5938 21.567 27.0047 21.1562 27.5001 21.1562C27.9955 21.1562 28.4063 21.567 28.4063 22.0625V22.3645H28.503C30.1101 22.3645 31.4272 23.7179 31.4272 25.3854C31.4272 25.8808 31.0163 26.2916 30.5209 26.2916C30.0255 26.2916 29.6147 25.8808 29.6147 25.3854C29.6147 24.7208 29.1192 24.177 28.503 24.177H28.4063V26.8595L29.6147 27.2825Z" fill="#3267D9"/>
<path d="M40.4171 15.0662C40.3204 14.8487 40.1513 14.6675 39.9217 14.5708C39.8129 14.5345 39.7042 14.5104 39.5833 14.5104H34.75C34.2546 14.5104 33.8438 14.9212 33.8438 15.4166C33.8438 15.912 34.2546 16.3229 34.75 16.3229H37.3963L35.3783 18.3408C35.8375 18.7395 36.2604 19.1625 36.6592 19.6216L38.6771 17.6037V20.25C38.6771 20.7454 39.0879 21.1562 39.5833 21.1562C40.0788 21.1562 40.4896 20.7454 40.4896 20.25V15.4166C40.4896 15.2958 40.4654 15.187 40.4171 15.0662Z" fill="#3267D9"/>
</svg>
