<svg width="32" height="32" viewBox="0 0 32 32" fill="none" xmlns="http://www.w3.org/2000/svg">
<g clip-path="url(#clip0_154_132)">
<path d="M28.1282 9.16998C28.7982 7.77082 28.7032 6.07578 27.5532 4.9257L27.0744 4.44691C25.9243 3.29683 24.1836 3.11386 22.8301 3.87187C21.8774 4.40538 19.8614 3.29606 19.7122 2.57754C19.3988 1.06854 17.9425 0 16.3267 0L15.504 0.041792C13.612 0.13792 12.1274 1.69997 12.1274 3.59437C12.192 4.416 10.784 5.024 9.96614 4.48947C8.5625 3.08582 6.28672 3.08582 4.88307 4.48947L4.48941 4.88314C3.28576 6.08685 3.14592 7.91283 3.97517 9.3184C4.544 10.2826 3.98931 11.9893 3.05478 12.2191C1.3543 12.6372 0 13.888 0 15.7311V16.3261C0 17.9583 1.18899 19.1762 2.66803 19.7009C4.20262 20.2452 4.0816 22.4963 3.92429 22.7661C3.12166 24.1422 3.31002 25.9374 4.48947 27.1169L4.88314 27.5105C6.05664 28.684 7.80928 28.8208 9.21325 28.0877C10.2187 27.5626 12.0961 28.544 12.2518 29.3463C12.5535 30.9011 14.0621 32 15.7218 32H16.2339C17.8609 32 19.2385 30.9322 19.7041 29.4591C20.0086 28.4958 21.4828 27.52 22.9491 28.1369C24.3441 28.7238 26.0624 28.565 27.1526 27.4749L27.5106 27.1169C28.9142 25.7132 28.9142 23.4374 27.5106 22.0339C26.8801 21.4614 27.6908 19.8827 28.4057 19.8726C30.3908 19.8726 32.0001 18.2634 32.0001 16.2783V15.6629C32.0001 14.01 30.9028 12.5357 29.3585 12.1963C28.32 11.968 27.792 9.872 28.1282 9.16998Z" fill="#45C9A5"/>
<path d="M13.2004 20.8851L9.02947 16.7142C8.52956 16.2142 8.52956 15.4038 9.02947 14.904C9.52937 14.4041 10.3398 14.4041 10.8396 14.904L14.1055 18.1698L21.1605 11.1149C21.6604 10.615 22.4708 10.615 22.9707 11.1149C23.4705 11.6148 23.4706 12.4252 22.9707 12.925L15.0107 20.8851C14.4854 21.3333 13.5468 21.2693 13.2004 20.8851Z" fill="white"/>
</g>
<defs>
<clipPath id="clip0_154_132">
<rect width="32" height="32" fill="white"/>
</clipPath>
</defs>
</svg>
